<?xml version="1.0" standalone="no"?>
<!DOCTYPE svg PUBLIC "-//W3C//DTD SVG 20010904//EN"
 "http://www.w3.org/TR/2001/REC-SVG-20010904/DTD/svg10.dtd">
<svg version="1.0" xmlns="http://www.w3.org/2000/svg"
 width="1016.000000pt" height="1016.000000pt" viewBox="0 0 1016.000000 1016.000000"
 preserveAspectRatio="xMidYMid meet">
<metadata>
Created by potrace 1.14, written by Peter Selinger 2001-2017
</metadata>
<g transform="translate(0.000000,1016.000000) scale(0.100000,-0.100000)"
fill="#000000" stroke="none">
<path d="M4500 9714 c-983 -69 -1824 -403 -2559 -1014 -149 -124 -403 -374
-523 -515 -510 -599 -857 -1331 -982 -2075 -52 -309 -61 -414 -60 -765 0 -321
2 -351 39 -635 l6 -45 -58 -35 c-32 -19 -99 -75 -149 -125 -112 -111 -163
-206 -195 -360 -51 -246 15 -421 193 -510 39 -19 79 -35 89 -35 35 0 30 -21
-17 -73 -155 -173 -232 -380 -174 -474 54 -89 175 -83 449 22 52 19 96 34 98
31 8 -8 112 -270 109 -273 -2 -2 -32 -11 -67 -19 -235 -58 -379 -227 -379
-444 0 -90 25 -155 81 -216 63 -66 144 -108 326 -169 88 -30 154 -58 176 -76
l34 -28 6 -168 c4 -95 13 -196 22 -232 32 -134 101 -223 211 -273 43 -20 64
-23 174 -22 103 1 139 5 208 26 l83 26 43 -57 c111 -144 311 -307 513 -420
549 -303 1379 -391 2333 -245 502 77 1118 239 1604 423 60 23 110 41 111 41 1
0 7 -19 14 -42 44 -148 176 -306 311 -371 100 -49 176 -67 280 -67 169 0 308
58 431 180 123 123 186 276 177 435 -7 128 -68 220 -183 278 l-49 25 84 42
c131 65 398 216 575 325 769 470 1335 966 1664 1458 167 250 270 490 326 762
23 112 31 330 16 450 -11 84 -52 253 -75 306 -5 12 10 36 49 80 64 73 137 213
161 309 43 169 9 360 -87 481 -16 20 -29 39 -29 42 0 3 26 11 58 17 117 24
162 71 162 169 0 147 -148 351 -359 493 -51 34 -75 56 -73 67 2 9 6 57 8 106
6 108 -20 225 -84 373 -60 139 -99 198 -187 287 -92 93 -173 140 -310 180
-139 41 -347 44 -522 9 -28 -5 -30 -3 -47 53 -29 91 -78 181 -196 356 -312
464 -710 866 -1165 1176 -599 408 -1280 657 -2015 736 -140 15 -567 27 -680
19z m660 -200 c215 -22 384 -51 580 -99 222 -55 334 -91 540 -172 785 -310
1442 -841 1920 -1550 156 -231 191 -307 209 -453 12 -93 0 -198 -35 -303 -28
-83 -112 -218 -251 -401 -170 -224 -186 -240 -353 -351 -840 -555 -1958 -1010
-2925 -1189 -378 -70 -543 -89 -917 -108 -449 -22 -967 22 -1287 108 -457 123
-841 477 -1013 931 -101 269 -118 543 -63 1028 49 427 187 899 385 1311 l71
149 -92 -90 c-684 -673 -1115 -1563 -1234 -2550 -37 -300 -30 -751 16 -1050
34 -230 68 -310 203 -484 7 -10 -1 -8 -22 5 -58 33 -175 164 -214 239 -48 93
-65 154 -88 315 -97 682 -7 1416 255 2090 58 150 246 523 335 663 424 674 978
1181 1673 1533 534 271 1039 404 1697 448 104 7 465 -5 610 -20z m3923 -2328
c172 -47 294 -169 380 -383 35 -89 67 -217 67 -270 0 -53 -21 -101 -60 -140
-102 -103 -289 -162 -910 -288 -435 -88 -563 -142 -621 -261 -29 -62 -28 -143
6 -269 35 -132 43 -273 22 -377 -21 -97 -78 -246 -116 -301 -132 -189 -299
-224 -759 -158 -228 33 -373 39 -435 17 -93 -34 -138 -98 -145 -207 -3 -52 4
-95 34 -215 37 -141 39 -157 39 -304 0 -133 -3 -166 -23 -235 -96 -331 -355
-506 -688 -465 -113 14 -248 58 -569 185 -294 117 -394 150 -498 166 -222 35
-395 -54 -580 -296 -108 -141 -198 -218 -333 -282 -139 -66 -242 -87 -394 -80
-136 6 -204 22 -314 69 -123 54 -204 115 -360 269 -95 95 -165 156 -195 171
-62 30 -155 36 -223 13 -105 -34 -148 -70 -431 -362 -145 -150 -256 -231 -370
-270 -180 -63 -426 -28 -479 67 -33 59 -20 168 43 353 75 223 78 315 12 388
-61 68 -101 74 -360 54 -382 -30 -525 -11 -597 78 -29 36 -31 45 -34 134 -5
118 20 205 89 307 40 60 161 176 183 176 3 0 12 -16 20 -35 28 -66 106 -176
174 -243 93 -93 189 -154 328 -208 137 -53 451 -145 575 -169 127 -24 409 -63
544 -75 66 -6 150 -15 187 -20 87 -13 499 -13 703 0 378 24 820 100 1275 220
85 23 205 54 265 70 423 112 1246 451 1615 666 52 31 181 105 285 166 105 61
247 148 316 194 70 46 129 84 133 84 17 0 367 264 521 392 142 118 581 560
705 708 118 142 282 358 352 464 86 129 140 294 142 431 l1 70 85 12 c107 15
317 9 393 -11z m648 -1033 c80 -60 158 -149 190 -217 16 -33 27 -61 25 -63 -2
-2 -104 -17 -227 -34 -265 -35 -371 -56 -579 -111 -256 -68 -522 -166 -819
-302 -79 -36 -147 -63 -151 -61 -4 2 -10 37 -13 77 -4 40 -18 118 -32 173 -32
129 -32 149 3 173 40 29 183 77 302 101 777 159 961 213 1114 324 l49 35 41
-26 c22 -15 66 -45 97 -69z m-59 -534 c63 -32 133 -104 159 -162 27 -64 36
-183 19 -259 -31 -134 -118 -259 -245 -351 -44 -32 -149 -92 -234 -133 -268
-132 -273 -142 -278 -559 -3 -276 -3 -281 -29 -332 -52 -108 -142 -134 -514
-153 -337 -17 -495 -47 -650 -125 -135 -68 -209 -139 -409 -390 -214 -271
-246 -307 -312 -368 -127 -118 -256 -167 -441 -167 l-106 0 -6 28 c-4 15 -9
101 -13 192 -6 172 3 294 35 450 l17 85 45 22 c25 13 167 83 315 156 149 74
279 139 290 145 11 6 67 36 125 68 600 326 1336 801 1547 998 208 194 367 472
408 716 9 52 20 102 24 110 5 9 42 21 97 31 117 22 109 22 156 -2z m-2722
-1051 c47 -6 88 -14 93 -18 4 -3 -25 -46 -65 -96 -39 -49 -101 -135 -139 -192
l-67 -103 -7 53 c-4 29 -20 104 -37 167 -16 63 -28 132 -26 155 3 36 6 42 33
48 32 7 82 4 215 -14z m2724 -120 c18 -145 13 -169 -59 -314 -254 -510 -766
-1026 -1508 -1517 -185 -122 -448 -283 -642 -391 -124 -69 -632 -326 -645
-326 -4 0 -10 44 -12 97 -3 79 -11 118 -39 200 l-36 101 111 16 c250 37 314
49 395 78 179 62 308 146 449 290 111 113 173 193 309 396 68 102 132 186 156
206 95 77 202 109 402 121 150 8 250 23 313 47 29 11 108 56 174 101 164 110
204 166 232 328 8 46 22 104 31 129 9 25 34 112 56 194 44 167 58 196 111 232
36 25 177 76 189 68 4 -2 10 -27 13 -56z m-8634 -865 c0 -4 -9 -41 -21 -84
l-21 -77 -58 -16 c-32 -9 -134 -44 -227 -78 -335 -121 -416 -148 -421 -143 -9
8 35 94 84 161 50 71 198 213 228 219 23 4 285 21 379 23 31 1 57 -1 57 -5z
m8420 -70 c-53 -95 -153 -241 -247 -358 -110 -139 -400 -429 -563 -565 -501
-416 -1206 -849 -1908 -1169 l-113 -52 -70 23 c-73 23 -83 32 -46 44 67 21
455 202 672 313 1031 528 1838 1155 2241 1741 30 44 58 80 61 80 3 0 -9 -26
-27 -57z m-4574 -43 c42 -12 172 -60 288 -107 281 -114 496 -188 596 -207 106
-20 280 -20 378 0 75 15 203 70 271 115 l34 23 -6 -40 c-19 -124 -29 -304 -24
-424 11 -240 48 -399 143 -621 80 -189 84 -324 11 -370 -26 -17 -44 -19 -100
-16 -107 7 -177 47 -307 178 -97 97 -114 110 -166 125 -87 25 -137 6 -249 -94
-144 -128 -187 -161 -260 -197 -116 -58 -179 -70 -360 -70 -185 0 -245 15
-357 87 -158 102 -220 172 -595 678 -87 118 -187 248 -222 288 -35 40 -61 75
-60 76 2 2 38 21 79 41 162 81 264 169 413 354 134 167 215 215 349 207 37 -3
102 -14 144 -26z m-3956 -907 c174 -235 427 -421 680 -501 176 -55 249 -66
440 -66 161 0 198 4 455 47 154 25 314 53 355 61 365 72 755 162 1019 236 79
22 151 40 160 40 9 0 53 -51 98 -113 45 -61 95 -130 112 -153 l30 -40 -62 13
c-87 18 -268 17 -341 -2 -147 -39 -265 -143 -361 -320 -64 -119 -137 -205
-200 -238 -55 -29 -155 -28 -210 0 -53 28 -133 112 -187 198 -103 161 -211
216 -361 181 -81 -19 -152 -54 -362 -181 -155 -93 -444 -242 -554 -285 -92
-36 -241 -70 -305 -70 -153 0 -194 74 -202 369 -5 191 -18 235 -91 302 -52 48
-111 76 -287 135 -207 70 -246 102 -246 204 0 124 89 216 248 254 102 25 101
26 172 -71z m5140 -730 c42 -43 107 -96 144 -117 37 -22 63 -42 59 -47 -4 -4
-66 -28 -138 -54 -758 -275 -1369 -415 -1817 -415 -259 0 -395 43 -470 150
-72 103 -61 210 32 294 145 131 372 137 585 16 142 -81 248 -132 333 -160 261
-87 501 -76 727 34 130 63 225 134 350 262 61 61 112 112 114 113 2 1 39 -34
81 -76z m-4111 -545 c69 -63 239 -177 346 -230 271 -137 641 -230 1024 -259
184 -13 645 -8 831 11 623 61 1271 219 2020 492 l95 35 -21 -66 -21 -66 -74
-28 c-144 -54 -510 -177 -661 -221 -315 -92 -573 -152 -893 -206 -837 -142
-1559 -107 -2085 101 -236 93 -419 210 -577 369 -85 85 -93 96 -77 107 27 19
31 17 93 -39z m5254 -67 c64 -40 80 -106 52 -216 -41 -158 -176 -285 -335
-315 -75 -14 -188 3 -267 40 -153 71 -256 254 -238 421 10 85 10 85 106 54
124 -40 222 -40 359 2 133 41 141 42 222 39 47 -2 76 -10 101 -25z"/>
<path d="M6891 8134 c-28 -36 -27 -79 4 -109 62 -62 162 2 134 85 -13 36 -36
50 -83 50 -25 0 -40 -7 -55 -26z"/>
<path d="M6265 7385 c-41 -40 -33 -105 17 -131 24 -12 36 -13 64 -4 39 13 54
35 54 80 0 41 -39 80 -80 80 -19 0 -40 -9 -55 -25z"/>
<path d="M7755 7305 c-64 -63 13 -162 100 -129 19 8 45 55 45 82 0 11 -9 31
-21 46 -28 36 -89 37 -124 1z"/>
<path d="M4099 6611 c-45 -45 -37 -100 18 -129 33 -18 59 -14 89 12 56 47 20
146 -52 146 -15 0 -38 -12 -55 -29z"/>
<path d="M6165 6068 c-31 -18 -44 -40 -44 -73 0 -75 94 -110 145 -54 24 27 23
84 -2 109 -24 25 -73 34 -99 18z"/>
<path d="M2694 5788 c-24 -11 -44 -48 -44 -78 0 -10 10 -31 23 -45 17 -21 32
-27 61 -27 45 0 73 23 82 69 5 27 1 37 -24 63 -31 31 -61 37 -98 18z"/>
</g>
</svg>
